<?xml version="1.0" encoding="UTF-8"?>
<svg width="982px" height="969px" viewBox="0 0 982 969" version="1.1" xmlns="http://www.w3.org/2000/svg" xmlns:xlink="http://www.w3.org/1999/xlink">
    <title>e25fe4b054a5579758a824f9eefa4546</title>
    <g id="Page-1" stroke="none" stroke-width="1" fill="none" fill-rule="evenodd">
        <g id="e25fe4b054a5579758a824f9eefa4546" transform="translate(0.000000, 1.000000)" fill="#6AAC1C" fill-rule="nonzero">
            <g id="Group" transform="translate(490.950000, 484.000000) scale(-1, 1) rotate(-180.000000) translate(-490.950000, -484.000000) translate(0.900000, 0.300000)">
                <path d="M229.07,965.33 C122.58,950.2 35.44,872.44 8.62,768.82 C2.49,744.88 -0.96,711.36 0.38,689.72 C3.25,646.63 23.36,594.53 56.12,545.5 C68.76,526.35 493.19,0.02 495.87,0.02 C498.55,0.02 911.68,525.77 926.43,547.79 C952.67,586.86 971.25,631.68 977.76,670.37 C983.12,703.31 979.1,747.75 967.23,783.95 C936.78,877.03 857.87,945.98 761.34,963.8 C734.53,968.78 686.45,968.2 660.6,962.65 C598.16,949.24 543.19,914.96 504.89,865.74 C497.61,856.36 490.91,848.5 490.14,848.5 C489.37,848.5 482.67,856.35 475.39,865.74 C437.28,914.77 381.73,949.44 320.63,962.46 C295.53,967.63 254.55,968.97 229.07,965.33 Z M305.69,925.3 C365.83,914.57 420.8,878.57 454.7,827.62 C460.25,819 470.41,801.19 476.92,787.78 C483.62,774.18 489.56,763.26 490.14,763.26 C490.72,763.26 496.65,774.18 503.36,787.78 C509.87,801.19 520.02,819 525.58,827.62 C552.97,868.8 594.72,900.98 641.07,916.49 C701.4,936.6 771.31,930.47 824.36,900.02 C886.61,864.78 927.02,806.36 938.32,736.07 C941.58,715.58 939.85,674.4 934.87,656.97 C926.44,627.09 911.31,594.91 891.78,566.38 C880.08,548.94 498.56,63.8 495.88,62.6490851 C493.77,61.88 102.09,547.41 88.3,567.9 C66.85,599.89 49.04,639.34 43.1,667.88 C41.38,676.5 40.04,692.01 40.04,705.04 C40.04,810.76 115.12,901.93 220.46,923.96 C242.48,928.55 283.09,929.13 305.69,925.3 Z" id="Shape"></path>
                <path d="M154.57,771.31 C331.35,436.71 489.36,138.88 490.13,138.88 C490.9,138.88 648.91,436.71 825.69,771.31 L836.61,792 L739.7,791.62 L642.79,791.05 L566.94,637.44 C525.19,552.78 490.71,483.64 490.14,483.64 C489.57,483.64 455.09,552.78 413.34,637.44 L337.49,791.05 L240.58,791.62 L143.67,792 L154.57,771.31 Z M401.07,573.65 C449.34,475.59 489.56,395.53 490.13,395.53 C490.7,395.53 530.93,475.78 579.19,573.65 L667.1,751.77 L718.43,751.77 C746.59,751.77 769.76,751.2 769.76,750.62 C769.76,748.7 491.08,223.15 490.13,223.15 C489.18,223.15 210.5,748.71 210.5,750.62 C210.5,751.2 233.68,751.77 261.83,751.77 L313.16,751.77 L401.07,573.65 Z" id="Shape"></path>
            </g>
        </g>
    </g>
</svg>